control3min_grf.mot
version=1
nRows=22
nColumns 19
inDegrees=yes
endheader
time	1_ground_force_vx	1_ground_force_vy	1_ground_force_vz	1_ground_force_px	1_ground_force_py	1_ground_force_pz	1_ground_torque_x	1_ground_torque_y	1_ground_torque_z	2_ground_force_vx	2_ground_force_vy	2_ground_force_vz	2_ground_force_px	2_ground_force_py	2_ground_force_pz	2_ground_torque_x	2_ground_torque_y	2_ground_torque_z
            1.253500	          -19.339284	          769.512348	          -29.807380	           -0.217851	            0.006281	           -0.418119	           -0.009731	            0.387182	           -0.014998	          -20.538109	          824.855114	           21.440770	           -0.210278	            0.005578	           -0.656571	           -0.002144	            0.086111	            0.002238
            1.254000	          -19.338234	          765.005283	          -29.734992	           -0.217764	            0.006281	           -0.418139	           -0.007638	            0.302139	           -0.011744	          -20.425820	          819.699436	           21.375404	           -0.210213	            0.005577	           -0.656309	           -0.005854	            0.234939	            0.006127
            1.254500	          -18.695756	          760.679227	          -29.800988	           -0.217857	            0.006280	           -0.418009	           -0.008753	            0.356125	           -0.013952	          -20.736590	          814.911309	           21.123820	           -0.210132	            0.005577	           -0.656238	           -0.008839	            0.347355	            0.009004
            1.255000	          -18.648858	          754.910734	          -29.825837	           -0.217683	            0.006281	           -0.418112	           -0.009935	            0.402154	           -0.015889	          -20.677073	          811.412287	           21.205172	           -0.209988	            0.005578	           -0.656350	           -0.006301	            0.247261	            0.006462
            1.255500	          -18.372196	          749.862169	          -29.573027	           -0.217533	            0.006280	           -0.418019	           -0.010980	            0.448131	           -0.017673	          -20.707244	          806.807915	           21.329549	           -0.209860	            0.005578	           -0.656245	           -0.004808	            0.187333	            0.004953
            1.256000	          -18.691006	          744.632528	          -29.136087	           -0.217543	            0.006281	           -0.418153	           -0.010529	            0.419461	           -0.016413	          -20.783705	          802.020009	           21.218649	           -0.209936	            0.005578	           -0.656285	           -0.003951	            0.152460	            0.004034
            1.256500	          -18.643655	          740.124685	          -28.880389	           -0.217494	            0.006281	           -0.418116	           -0.010610	            0.421194	           -0.016435	          -20.346086	          797.601866	           21.249629	           -0.209812	            0.005579	           -0.656456	           -0.003196	            0.125289	            0.003338
            1.257000	          -19.053905	          734.173645	          -28.400458	           -0.217350	            0.006280	           -0.417969	           -0.005509	            0.212266	           -0.008211	          -20.279275	          792.077402	           21.276825	           -0.209757	            0.005579	           -0.656340	           -0.008423	            0.328998	            0.008838
            1.257500	          -18.685752	          728.945194	          -28.240361	           -0.217341	            0.006281	           -0.418071	           -0.006044	            0.235799	           -0.009135	          -20.025918	          786.739324	           20.882246	           -0.209655	            0.005579	           -0.656213	           -0.010333	            0.405931	            0.010775
            1.258000	          -18.134370	          722.635836	          -28.222924	           -0.217139	            0.006282	           -0.418325	           -0.007217	            0.287593	           -0.011232	          -19.914815	          781.950756	           21.146691	           -0.209516	            0.005579	           -0.656135	           -0.009935	            0.390084	            0.010549
            1.258500	          -18.316431	          717.948167	          -28.059142	           -0.217125	            0.006281	           -0.418201	           -0.005988	            0.234719	           -0.009173	          -20.179422	          777.347045	           20.848816	           -0.209528	            0.005579	           -0.656269	           -0.010699	            0.412156	            0.011054
            1.259000	          -17.949042	          712.540797	          -28.220809	           -0.216946	            0.006281	           -0.418266	           -0.008591	            0.341026	           -0.013507	          -20.114544	          772.374562	           21.018768	           -0.209355	            0.005580	           -0.656219	           -0.008518	            0.327069	            0.008901
            1.259500	          -17.763820	          706.770954	          -27.925007	           -0.216849	            0.006281	           -0.418200	           -0.010340	            0.411391	           -0.016254	          -20.051018	          767.770529	           21.143106	           -0.209266	            0.005580	           -0.656206	           -0.007717	            0.295481	            0.008137
            1.260000	          -17.853395	          700.820369	          -27.537584	           -0.216912	            0.006282	           -0.418401	           -0.006228	            0.244482	           -0.009607	          -19.751433	          762.616364	           20.843020	           -0.209359	            0.005580	           -0.656313	           -0.009040	            0.349038	            0.009540
            1.260500	          -18.080336	          695.229957	          -27.056562	           -0.216887	            0.006282	           -0.418353	           -0.001276	            0.049074	           -0.001910	          -19.543430	          756.908374	           20.822571	           -0.209267	            0.005579	           -0.655973	           -0.013226	            0.512224	            0.014091
            1.261000	          -18.124786	          689.460857	          -26.943615	           -0.216726	            0.006282	           -0.418321	           -0.000070	            0.002679	           -0.000105	          -19.199672	          752.491231	           20.478166	           -0.209133	            0.005580	           -0.656053	           -0.014070	            0.551427	            0.015006
            1.261500	          -17.618515	          683.510584	          -26.603528	           -0.216685	            0.006282	           -0.418429	           -0.000839	            0.032564	           -0.001267	          -19.226523	          746.966095	           20.599258	           -0.209140	            0.005580	           -0.656149	           -0.015177	            0.589634	            0.016260
            1.262000	          -17.296985	          677.562756	          -26.813255	           -0.216650	            0.006282	           -0.418465	           -0.003464	            0.135706	           -0.005370	          -19.205132	          741.072345	           20.859801	           -0.208929	            0.005580	           -0.655851	           -0.013227	            0.510404	            0.014367
            1.262500	          -17.020242	          672.694169	          -26.513817	           -0.216536	            0.006282	           -0.418373	           -0.004661	            0.184235	           -0.007261	          -19.139630	          735.915995	           20.935239	           -0.208840	            0.005581	           -0.655982	           -0.011626	            0.447017	            0.012717
            1.263000	          -17.019222	          667.105963	          -26.537778	           -0.216396	            0.006282	           -0.418390	           -0.003881	            0.152118	           -0.006051	          -19.306426	          730.206774	           20.914950	           -0.208737	            0.005580	           -0.655649	           -0.013146	            0.497201	            0.014241
            1.263500	          -16.742314	          661.336139	          -26.242204	           -0.216373	            0.006282	           -0.418430	           -0.003454	            0.136452	           -0.005414	          -18.868349	          725.606102	           20.475992	           -0.208667	            0.005581	           -0.655971	           -0.014302	            0.550013	            0.015521
            1.264000	          -17.106930	          654.664634	          -25.903047	           -0.216295	            0.006283	           -0.418543	            0.002052	           -0.078511	            0.003106	          -18.853021	          721.370349	           20.554735	           -0.208822	            0.005581	           -0.656078	           -0.018266	            0.698925	            0.019915
